<svg width="24" height="22" viewBox="0 0 24 22" fill="none" xmlns="http://www.w3.org/2000/svg">
<path d="M10.5542 1.46242C10.8083 0.970758 10.6167 0.366592 10.1292 0.112425C9.64167 -0.141742 9.03333 0.0499251 8.77917 0.537425L4.9 7.99993H1.33333C0.595833 7.99993 0 8.59576 0 9.33326C0 10.0708 0.595833 10.6666 1.33333 10.6666L3.49583 19.3124C3.79167 20.4999 4.85833 21.3333 6.08333 21.3333H17.9167C19.1417 21.3333 20.2083 20.4999 20.5042 19.3124L22.6667 10.6666C23.4042 10.6666 24 10.0708 24 9.33326C24 8.59576 23.4042 7.99993 22.6667 7.99993H19.1L15.2208 0.537425C14.9667 0.0499251 14.3625 -0.141742 13.8708 0.112425C13.3792 0.366592 13.1917 0.970758 13.4458 1.46242L16.8458 7.99993H7.15417L10.5542 1.46242ZM8 12.6666V16.6666C8 17.0333 7.7 17.3333 7.33333 17.3333C6.96667 17.3333 6.66667 17.0333 6.66667 16.6666V12.6666C6.66667 12.2999 6.96667 11.9999 7.33333 11.9999C7.7 11.9999 8 12.2999 8 12.6666ZM12 11.9999C12.3667 11.9999 12.6667 12.2999 12.6667 12.6666V16.6666C12.6667 17.0333 12.3667 17.3333 12 17.3333C11.6333 17.3333 11.3333 17.0333 11.3333 16.6666V12.6666C11.3333 12.2999 11.6333 11.9999 12 11.9999ZM17.3333 12.6666V16.6666C17.3333 17.0333 17.0333 17.3333 16.6667 17.3333C16.3 17.3333 16 17.0333 16 16.6666V12.6666C16 12.2999 16.3 11.9999 16.6667 11.9999C17.0333 11.9999 17.3333 12.2999 17.3333 12.6666Z" fill="#0C1C28"/>
</svg>
