<svg width="101" height="23" viewBox="0 0 101 23" fill="none" xmlns="http://www.w3.org/2000/svg">
<path fill-rule="evenodd" clip-rule="evenodd" d="M95.1702 0.200012C92.278 0.200012 89.9404 2.53757 89.9404 5.4298C89.9404 8.32204 92.278 10.6596 95.1702 10.6596C98.0625 10.6596 100.4 8.32204 100.4 5.4298C100.4 2.43192 98.0625 0.200012 95.1702 0.200012Z" fill="url(#paint0_linear_304_4)"/>
<path d="M95.4476 12.1519C95.2627 12.8123 95.1702 13.3669 94.9853 13.7367L94.8929 13.9216C94.8004 14.3838 94.4307 14.6744 93.9552 14.6744H93.6779C93.493 14.6744 93.3081 14.5819 93.1232 14.3971C93.0308 14.2122 92.9383 14.0273 92.9383 13.8424L93.2157 11.967C93.2157 11.8746 93.3081 11.6897 93.4005 11.5973C90.6932 10.9369 88.7254 8.52014 88.7254 5.6147C88.7254 5.15247 88.8179 4.76947 88.8179 4.30725H81.1581C80.6958 4.30725 80.3128 4.02991 80.2204 3.55447L79.8506 1.96969C79.6657 1.41501 79.1903 0.939575 78.5432 0.939575H76.2981C75.8358 0.939575 75.5453 1.30936 75.5453 1.69235C75.5453 2.15458 75.9151 2.44513 76.2981 2.44513H77.5131C77.9753 2.44513 78.3583 2.72246 78.4507 3.1979L81.4354 15.3479C81.6203 15.9026 82.0957 16.378 82.7429 16.378H94.9853C95.6457 16.378 96.1079 16.0083 96.2928 15.3479L97.3229 11.2407C96.6626 11.518 96.0154 11.6105 95.3551 11.7029C95.54 11.967 95.54 12.0595 95.4476 12.1519ZM81.7127 8.79747C81.6203 8.33524 81.4354 7.85981 81.343 7.49003L81.2505 7.12024C81.1581 6.93535 81.2505 6.75046 81.343 6.56557C81.4354 6.38067 81.7127 6.28823 81.8976 6.28823H82.7429C83.2051 6.28823 83.5881 6.56557 83.5881 7.041L83.8654 8.71824C83.8654 8.90313 83.8654 9.08802 83.6805 9.27291C83.5881 9.4578 83.3107 9.55025 83.1258 9.55025H82.6636C82.175 9.4446 81.8052 9.16726 81.7127 8.79747ZM84.605 14.3971C84.5125 14.5819 84.2352 14.6744 84.0503 14.6744H83.9579C83.4956 14.6744 83.1126 14.397 83.0202 13.9216L82.9277 13.7367C82.8353 13.2745 82.6504 12.7066 82.4655 12.0595C82.3731 11.8746 82.4655 11.6897 82.558 11.5048C82.6504 11.3199 82.9277 11.2275 83.1126 11.2275H83.5749C84.0371 11.2275 84.4201 11.5048 84.5125 11.9803L84.7899 13.8556C84.7899 14.0273 84.7899 14.3046 84.605 14.3971ZM88.0651 14.0273C88.0651 14.3971 87.7878 14.6876 87.4048 14.6876C87.035 14.6876 86.652 14.4103 86.652 14.0273L86.3747 12.0595C86.3747 11.8746 86.3747 11.6897 86.5595 11.5048C86.652 11.3199 86.9293 11.2275 87.1142 11.2275H87.3916C87.8538 11.2275 88.2368 11.5973 88.2368 12.0727V14.0405H88.0651V14.0273ZM88.0651 8.69182C88.0651 9.15405 87.6953 9.53704 87.2199 9.53704H86.5595C86.0973 9.53704 85.7143 9.25971 85.6219 8.78427L85.437 7.01459C85.437 6.8297 85.437 6.64481 85.6219 6.45992C85.8068 6.27502 85.9917 6.18258 86.1766 6.18258H87.2991C87.7613 6.18258 88.0519 6.55236 88.0519 7.0278V8.69182H88.0651ZM91.6177 12.0595L91.3403 14.0273C91.2479 14.3971 90.9705 14.6876 90.5875 14.6876C90.2046 14.6876 89.9272 14.4103 89.9272 14.0273V12.0595C89.9272 11.5973 90.297 11.2143 90.7724 11.2143H91.0498C91.2347 11.2143 91.4196 11.3067 91.6045 11.4916L91.6177 12.0595Z" fill="url(#paint1_linear_304_4)"/>
<path fill-rule="evenodd" clip-rule="evenodd" d="M95.1702 0.939575L96.4776 3.55447L99.4623 4.0167L97.3097 6.07693L97.7719 8.96916L95.157 7.66171L92.5421 8.96916L93.0043 6.07693L90.9441 4.0167L93.8363 3.55447L95.1702 0.939575Z" fill="white"/>
<path d="M83.5749 22.3474C84.8149 22.3474 85.8201 21.3009 85.8201 20.0099C85.8201 18.7189 84.8149 17.6723 83.5749 17.6723C82.335 17.6723 81.3298 18.7189 81.3298 20.0099C81.3298 21.3009 82.335 22.3474 83.5749 22.3474Z" fill="url(#paint2_linear_304_4)"/>
<path d="M94.4175 22.3474C95.6574 22.3474 96.6626 21.3009 96.6626 20.0099C96.6626 18.7189 95.6574 17.6723 94.4175 17.6723C93.1775 17.6723 92.1724 18.7189 92.1724 20.0099C92.1724 21.3009 93.1775 22.3474 94.4175 22.3474Z" fill="url(#paint3_linear_304_4)"/>
<path fill-rule="evenodd" clip-rule="evenodd" d="M25.8226 17.7674C24.7925 18.5201 23.2077 18.7975 21.0551 18.7975H17.9647C17.5025 18.7975 17.1195 18.7975 16.5648 18.7975C16.1026 18.7975 15.6272 18.705 15.1649 18.6126C14.7027 18.5201 14.2273 18.3352 13.8575 18.2428C13.3953 18.0579 13.0123 17.7806 12.7349 17.49C12.4576 17.2127 12.1803 16.7372 11.9822 16.275C11.7973 15.8128 11.7048 15.2449 11.7048 14.5053V3.84766H14.5046V14.3997C14.5046 15.5222 15.5347 16.0769 17.6874 16.0769H21.5173C23.5775 16.0769 24.6076 15.5222 24.6076 14.3997V3.84766H27.4074V14.5846C27.315 15.9845 26.8527 17.107 25.8226 17.7674Z" fill="white"/>
<path fill-rule="evenodd" clip-rule="evenodd" d="M48.5248 18.9692V9.16994L42.4497 18.1372C42.2649 18.4145 41.9875 18.6919 41.697 18.89C41.4196 19.0748 41.1423 19.1673 40.7593 19.1673C40.099 19.1673 39.5443 18.89 39.0821 18.2296L33.0071 9.07749V18.9824H30.2073V5.43248C30.2073 4.87781 30.3922 4.49482 30.6695 4.21748C30.9468 3.94014 31.3298 3.75525 31.7921 3.75525C32.4524 3.75525 33.0071 4.03259 33.3768 4.50802L40.9442 15.3506L48.4191 4.60047C48.7889 4.04579 49.2643 3.75525 49.9114 3.75525C50.3737 3.75525 50.7567 3.94014 51.034 4.21748C51.3113 4.49482 51.4962 4.97025 51.4962 5.52493V18.89H48.5116V18.9692H48.5248Z" fill="white"/>
<path fill-rule="evenodd" clip-rule="evenodd" d="M54.1375 18.8767V3.83447H56.9372V18.8767H54.1375Z" fill="white"/>
<path d="M76.0076 18.9692L73.67 14.8619H64.8877L62.6426 18.9692H59.2749L67.6875 4.86458C68.0573 4.20425 68.6251 3.83447 69.2723 3.83447C69.9326 3.83447 70.4873 4.20425 70.8571 4.86458L79.0847 18.9692H76.0076ZM69.2855 7.57192L66.5781 12.0622H71.9928L69.2855 7.57192Z" fill="white"/>
<path fill-rule="evenodd" clip-rule="evenodd" d="M8.90504 12.1546C8.90504 16.7373 7.22781 18.6918 4.22992 19.3521C1.33769 19.9068 0.400024 19.9068 0.400024 19.9068V16.8297C1.52258 16.7372 3.29226 16.5524 4.41482 16.1694C5.44493 15.7996 6.18449 14.7695 6.18449 12.1546L6.27694 6.64744V3.84766H9.07673L8.90504 12.1546Z" fill="white"/>
<defs>
<linearGradient id="paint0_linear_304_4" x1="89.9761" y1="5.4273" x2="100.403" y2="5.4273" gradientUnits="userSpaceOnUse">
<stop stop-color="#EB722A"/>
<stop offset="0.2311" stop-color="#EE8526"/>
<stop offset="0.4715" stop-color="#F29527"/>
<stop offset="0.6242" stop-color="#F39A24"/>
</linearGradient>
<linearGradient id="paint1_linear_304_4" x1="75.6212" y1="8.65073" x2="97.4741" y2="8.65073" gradientUnits="userSpaceOnUse">
<stop stop-color="white"/>
<stop offset="0.5455" stop-color="white"/>
<stop offset="1" stop-color="#DCDCDC"/>
</linearGradient>
<linearGradient id="paint2_linear_304_4" x1="81.3422" y1="20.0035" x2="85.8402" y2="20.0035" gradientUnits="userSpaceOnUse">
<stop stop-color="#DCDCDC"/>
<stop offset="0.5455" stop-color="white"/>
<stop offset="1" stop-color="#DCDCDC"/>
</linearGradient>
<linearGradient id="paint3_linear_304_4" x1="92.1481" y1="20.0035" x2="96.644" y2="20.0035" gradientUnits="userSpaceOnUse">
<stop stop-color="#DCDCDC"/>
<stop offset="0.5455" stop-color="white"/>
<stop offset="1" stop-color="#DCDCDC"/>
</linearGradient>
</defs>
</svg>
